<svg width="35" height="24" viewBox="0 0 35 24" fill="none" xmlns="http://www.w3.org/2000/svg">
<rect width="35" height="24" rx="4" fill="#04565A" fill-opacity="0.1"/>
<path d="M30.875 15.2997V8.63306C30.8747 8.34078 30.7975 8.05373 30.6513 7.80069C30.505 7.54765 30.2948 7.33753 30.0417 7.19139L24.2083 3.85806C23.955 3.71178 23.6676 3.63477 23.375 3.63477C23.0824 3.63477 22.795 3.71178 22.5417 3.85806L16.7083 7.19139C16.4552 7.33753 16.245 7.54765 16.0987 7.80069C15.9525 8.05373 15.8753 8.34078 15.875 8.63306V15.2997C15.8753 15.592 15.9525 15.879 16.0987 16.1321C16.245 16.3851 16.4552 16.5953 16.7083 16.7414L22.5417 20.0747C22.795 20.221 23.0824 20.298 23.375 20.298C23.6676 20.298 23.955 20.221 24.2083 20.0747L30.0417 16.7414C30.2948 16.5953 30.505 16.3851 30.6513 16.1321C30.7975 15.879 30.8747 15.592 30.875 15.2997Z" stroke="#04565A" stroke-linecap="round" stroke-linejoin="round"/>
<path d="M16.0996 7.76562L23.3746 11.974L30.6496 7.76562" stroke="#04565A" stroke-linecap="round" stroke-linejoin="round"/>
<path d="M23.375 20.3668V11.9668" stroke="#04565A" stroke-linecap="round" stroke-linejoin="round"/>
<path d="M12.4583 8.16667L8.29167 4L4.125 8.16667" stroke="#04565A" stroke-linecap="round" stroke-linejoin="round"/>
<path d="M17.4577 17.3333H11.6243C10.7403 17.3333 9.89245 16.9821 9.26733 16.357C8.6422 15.7319 8.29102 14.8841 8.29102 14V4" stroke="#04565A" stroke-linecap="round" stroke-linejoin="round"/>
</svg>
