<svg width="4" height="16" viewBox="0 0 4 16" fill="none" xmlns="http://www.w3.org/2000/svg">
<path d="M1.99935 8.83341C2.45959 8.83341 2.83268 8.46032 2.83268 8.00008C2.83268 7.53984 2.45959 7.16675 1.99935 7.16675C1.53911 7.16675 1.16602 7.53984 1.16602 8.00008C1.16602 8.46032 1.53911 8.83341 1.99935 8.83341Z" stroke="#707070" stroke-width="0.833333" stroke-linecap="round" stroke-linejoin="round"/>
<path d="M1.99935 3.00004C2.45959 3.00004 2.83268 2.62694 2.83268 2.16671C2.83268 1.70647 2.45959 1.33337 1.99935 1.33337C1.53911 1.33337 1.16602 1.70647 1.16602 2.16671C1.16602 2.62694 1.53911 3.00004 1.99935 3.00004Z" stroke="#707070" stroke-width="0.833333" stroke-linecap="round" stroke-linejoin="round"/>
<path d="M1.99935 14.6667C2.45959 14.6667 2.83268 14.2936 2.83268 13.8333C2.83268 13.3731 2.45959 13 1.99935 13C1.53911 13 1.16602 13.3731 1.16602 13.8333C1.16602 14.2936 1.53911 14.6667 1.99935 14.6667Z" stroke="#707070" stroke-width="0.833333" stroke-linecap="round" stroke-linejoin="round"/>
</svg>
