<svg width="4" height="15" viewBox="0 0 4 15" fill="none" xmlns="http://www.w3.org/2000/svg">
<path d="M2.00033 8.33366C2.46056 8.33366 2.83366 7.96056 2.83366 7.50033C2.83366 7.04009 2.46056 6.66699 2.00033 6.66699C1.54009 6.66699 1.16699 7.04009 1.16699 7.50033C1.16699 7.96056 1.54009 8.33366 2.00033 8.33366Z" stroke="#707070" stroke-width="0.833333" stroke-linecap="round" stroke-linejoin="round"/>
<path d="M2.00033 2.50016C2.46056 2.50016 2.83366 2.12707 2.83366 1.66683C2.83366 1.20659 2.46056 0.833496 2.00033 0.833496C1.54009 0.833496 1.16699 1.20659 1.16699 1.66683C1.16699 2.12707 1.54009 2.50016 2.00033 2.50016Z" stroke="#707070" stroke-width="0.833333" stroke-linecap="round" stroke-linejoin="round"/>
<path d="M2.00033 14.1667C2.46056 14.1667 2.83366 13.7936 2.83366 13.3333C2.83366 12.8731 2.46056 12.5 2.00033 12.5C1.54009 12.5 1.16699 12.8731 1.16699 13.3333C1.16699 13.7936 1.54009 14.1667 2.00033 14.1667Z" stroke="#707070" stroke-width="0.833333" stroke-linecap="round" stroke-linejoin="round"/>
</svg>
