<svg width="19" height="18" viewBox="0 0 19 18" fill="none" xmlns="http://www.w3.org/2000/svg">
<path d="M1 13.5L0.646447 13.1464C0.552678 13.2402 0.5 13.3674 0.5 13.5H1ZM14 0.5L14.3536 0.146447C14.1583 -0.0488155 13.8417 -0.0488155 13.6464 0.146447L14 0.5ZM18 4.5L18.3536 4.85355C18.5488 4.65829 18.5488 4.34171 18.3536 4.14645L18 4.5ZM5 17.5V18C5.13261 18 5.25979 17.9473 5.35355 17.8536L5 17.5ZM1 17.5H0.5C0.5 17.7761 0.723858 18 1 18V17.5ZM9 17C8.72386 17 8.5 17.2239 8.5 17.5C8.5 17.7761 8.72386 18 9 18V17ZM17.5 18C17.7761 18 18 17.7761 18 17.5C18 17.2239 17.7761 17 17.5 17V18ZM1.35355 13.8536L14.3536 0.853553L13.6464 0.146447L0.646447 13.1464L1.35355 13.8536ZM13.6464 0.853553L17.6464 4.85355L18.3536 4.14645L14.3536 0.146447L13.6464 0.853553ZM17.6464 4.14645L4.64645 17.1464L5.35355 17.8536L18.3536 4.85355L17.6464 4.14645ZM5 17H1V18H5V17ZM1.5 17.5V13.5H0.5V17.5H1.5ZM10.6464 3.85355L14.6464 7.85355L15.3536 7.14645L11.3536 3.14645L10.6464 3.85355ZM9 18H17.5V17H9V18Z" fill="#C4C4C4"/>
</svg>
