<svg width="19" height="19" viewBox="0 0 19 19" fill="none" xmlns="http://www.w3.org/2000/svg">
<path d="M1 14L0.646447 13.6464C0.552678 13.7402 0.5 13.8674 0.5 14H1ZM14 1L14.3536 0.646447C14.1583 0.451184 13.8417 0.451184 13.6464 0.646447L14 1ZM18 5L18.3536 5.35355C18.5488 5.15829 18.5488 4.84171 18.3536 4.64645L18 5ZM5 18V18.5C5.13261 18.5 5.25979 18.4473 5.35355 18.3536L5 18ZM1 18H0.5C0.5 18.2761 0.723858 18.5 1 18.5V18ZM9 17.5C8.72386 17.5 8.5 17.7239 8.5 18C8.5 18.2761 8.72386 18.5 9 18.5V17.5ZM17.5 18.5C17.7761 18.5 18 18.2761 18 18C18 17.7239 17.7761 17.5 17.5 17.5V18.5ZM1.35355 14.3536L14.3536 1.35355L13.6464 0.646447L0.646447 13.6464L1.35355 14.3536ZM13.6464 1.35355L17.6464 5.35355L18.3536 4.64645L14.3536 0.646447L13.6464 1.35355ZM17.6464 4.64645L4.64645 17.6464L5.35355 18.3536L18.3536 5.35355L17.6464 4.64645ZM5 17.5H1V18.5H5V17.5ZM1.5 18V14H0.5V18H1.5ZM10.6464 4.35355L14.6464 8.35355L15.3536 7.64645L11.3536 3.64645L10.6464 4.35355ZM9 18.5H17.5V17.5H9V18.5Z" fill="#707070"/>
</svg>
