<svg width="20" height="20" viewBox="0 0 20 20" fill="none" xmlns="http://www.w3.org/2000/svg">
<path d="M14.1665 2.49895C14.3854 2.28008 14.6452 2.10646 14.9312 1.98801C15.2171 1.86956 15.5236 1.80859 15.8332 1.80859C16.1427 1.80859 16.4492 1.86956 16.7352 1.98801C17.0211 2.10646 17.281 2.28008 17.4998 2.49895C17.7187 2.71782 17.8923 2.97766 18.0108 3.26362C18.1292 3.54959 18.1902 3.85609 18.1902 4.16562C18.1902 4.47514 18.1292 4.78164 18.0108 5.06761C17.8923 5.35358 17.7187 5.61341 17.4998 5.83228L6.24984 17.0823L1.6665 18.3323L2.9165 13.7489L14.1665 2.49895Z" stroke="#667085" stroke-width="1.66667" stroke-linecap="round" stroke-linejoin="round"/>
</svg>
