<svg width="18" height="18" viewBox="0 0 18 18" fill="none" xmlns="http://www.w3.org/2000/svg">
<path d="M8.99935 17.3327C13.6017 17.3327 17.3327 13.6017 17.3327 8.99935C17.3327 4.39698 13.6017 0.666016 8.99935 0.666016C4.39698 0.666016 0.666016 4.39698 0.666016 8.99935C0.666016 13.6017 4.39698 17.3327 8.99935 17.3327Z" stroke="black" stroke-width="0.833333" stroke-linecap="round" stroke-linejoin="round"/>
<path d="M6.57422 6.49852C6.77014 5.94158 7.15685 5.47194 7.66585 5.1728C8.17485 4.87365 8.7733 4.7643 9.3552 4.86411C9.9371 4.96393 10.4649 5.26646 10.8451 5.71813C11.2253 6.1698 11.4334 6.74146 11.4326 7.33185C11.4326 8.99852 8.93255 9.83185 8.93255 9.83185" stroke="black" stroke-width="0.833333" stroke-linecap="round" stroke-linejoin="round"/>
<path d="M9 13.166H9.00833" stroke="black" stroke-width="0.833333" stroke-linecap="round" stroke-linejoin="round"/>
</svg>
