<svg width="20" height="18" viewBox="0 0 20 18" fill="none" xmlns="http://www.w3.org/2000/svg">
<path fill-rule="evenodd" clip-rule="evenodd" d="M9.13568 0.586089C9.57546 0.142364 10.4072 0.139304 10.8522 0.573987L10.8658 0.587545L13.125 2.75018V1.5C13.125 1.15893 13.3982 0.881672 13.7377 0.875118L13.75 0.875H15.625C15.9661 0.875 16.2433 1.1482 16.2499 1.4877L16.25 1.5V5.7416L19.1822 8.54844C19.4281 8.78382 19.4399 9.17181 19.2113 9.42164L19.2015 9.43211C18.9661 9.678 18.5781 9.68982 18.3283 9.46122L18.3178 9.45141L17.5 8.66856V16.5C17.5 17.1835 16.9515 17.7388 16.2707 17.7498L16.25 17.75H12.5C12.1589 17.75 11.8817 17.4768 11.8751 17.1373L11.875 17.125V11.8125C11.875 11.6432 11.7403 11.5053 11.5722 11.5001L11.5625 11.5H8.4375C8.26817 11.5 8.13029 11.6347 8.12515 11.8028L8.125 11.8125V17.125C8.125 17.4661 7.8518 17.7433 7.5123 17.7499L7.5 17.75H3.75C3.06655 17.75 2.51121 17.2015 2.50017 16.5207L2.5 16.5V8.66856L1.68219 9.45141C1.4363 9.68679 1.04817 9.68165 0.80855 9.44236L0.798515 9.43211C0.56314 9.18623 0.568273 8.79809 0.807564 8.55848L0.817815 8.54844L9.13568 0.586089ZM15 4.54503V2.125H14.375V3.94675L15 4.54503ZM10.0125 1.50114L16.25 7.47199V16.5H13.125V11.8125L13.1248 11.7867C13.111 10.9356 12.4168 10.25 11.5625 10.25H8.4375L8.41166 10.2502C7.56063 10.264 6.875 10.9582 6.875 11.8125V16.5H3.75V7.47199L9.98746 1.50114L9.99451 1.50071L10.0002 1.50061L10.0086 1.50086L10.0125 1.50114Z" fill="#667085"/>
</svg>
