<svg width="24" height="24" viewBox="0 0 24 24" fill="none" xmlns="http://www.w3.org/2000/svg">
<path d="M12.0001 12.8333C12.4603 12.8333 12.8334 12.4602 12.8334 12C12.8334 11.5398 12.4603 11.1667 12.0001 11.1667C11.5398 11.1667 11.1667 11.5398 11.1667 12C11.1667 12.4602 11.5398 12.8333 12.0001 12.8333Z" stroke="#C4C4C4" stroke-width="0.833333" stroke-linecap="round" stroke-linejoin="round"/>
<path d="M12.0001 7C12.4603 7 12.8334 6.6269 12.8334 6.16667C12.8334 5.70643 12.4603 5.33333 12.0001 5.33333C11.5398 5.33333 11.1667 5.70643 11.1667 6.16667C11.1667 6.6269 11.5398 7 12.0001 7Z" stroke="#C4C4C4" stroke-width="0.833333" stroke-linecap="round" stroke-linejoin="round"/>
<path d="M12.0001 18.6667C12.4603 18.6667 12.8334 18.2936 12.8334 17.8333C12.8334 17.3731 12.4603 17 12.0001 17C11.5398 17 11.1667 17.3731 11.1667 17.8333C11.1667 18.2936 11.5398 18.6667 12.0001 18.6667Z" stroke="#C4C4C4" stroke-width="0.833333" stroke-linecap="round" stroke-linejoin="round"/>
</svg>
