<svg width="43" height="42" viewBox="0 0 43 42" fill="none" xmlns="http://www.w3.org/2000/svg">
<path d="M8.95833 36.5075H34.0417C36.0207 36.5075 37.625 34.975 37.625 33.0846V9.12439C37.625 7.23399 36.0207 5.70151 34.0417 5.70151H8.95833C6.97931 5.70151 5.375 7.23399 5.375 9.12439V33.0846C5.375 34.975 6.97931 36.5075 8.95833 36.5075ZM8.95833 36.5075L28.6667 17.6816L37.625 26.2388M17.9167 15.1144C17.9167 16.5322 16.7134 17.6816 15.2292 17.6816C13.7449 17.6816 12.5417 16.5322 12.5417 15.1144C12.5417 13.6966 13.7449 12.5473 15.2292 12.5473C16.7134 12.5473 17.9167 13.6966 17.9167 15.1144Z" stroke="#C4C4C4" stroke-width="2" stroke-linecap="round" stroke-linejoin="round"/>
</svg>


