<svg width="20" height="20" viewBox="0 0 20 20" fill="none" xmlns="http://www.w3.org/2000/svg">
<path fill-rule="evenodd" clip-rule="evenodd" d="M15.1075 3.12457L15.9913 2.24083C16.4794 1.75306 17.2704 1.75306 17.7585 2.24083L17.7737 2.25637L17.7925 2.27623C18.247 2.76744 18.2342 3.53255 17.7587 4.00835L16.8751 4.89234C16.631 5.13654 16.2351 5.13654 15.991 4.89234L15.1074 4.00835C14.8634 3.76426 14.8635 3.36861 15.1075 3.12457ZM2.95588 15.3005L13.7813 4.45084C14.0253 4.2063 14.4214 4.20608 14.6657 4.45035L15.5492 5.33394C15.7935 5.57821 15.7933 5.97433 15.5487 6.21833L4.69874 17.0437C4.65268 17.0897 4.59973 17.1282 4.54179 17.1578L2.78437 18.0562C2.24454 18.3322 1.66743 17.7551 1.94335 17.2153L2.84179 15.4575C2.87141 15.3995 2.90991 15.3465 2.95588 15.3005Z" fill="#667085"/>
</svg>
