<svg width="20" height="20" viewBox="0 0 20 20" fill="none" xmlns="http://www.w3.org/2000/svg">
<path fill-rule="evenodd" clip-rule="evenodd" d="M11.5607 1.25001C11.9759 1.2488 12.3745 1.41322 12.6682 1.70685C12.9566 1.99533 13.1204 2.38512 13.1249 2.79076L13.125 2.81251V3.75001H15.6189H15.6299H16.875C17.2202 3.75001 17.5 4.02983 17.5 4.37501C17.5 4.71608 17.2268 4.99334 16.8873 4.99989L16.875 5.00001H16.2122L15.4676 16.9131C15.4042 17.9504 14.6354 18.7342 13.6245 18.7498L13.5938 18.75H6.40625C5.38968 18.75 4.60183 17.9713 4.53391 16.9385L4.53215 16.9087L3.78784 5.00001H3.125C2.77982 5.00001 2.5 4.72019 2.5 4.37501C2.5 4.03394 2.7732 3.75668 3.1127 3.75013L3.125 3.75001H4.37006H4.38114H6.875L6.875 2.81433C6.87379 2.39907 7.03822 2.00048 7.33185 1.70685C7.62032 1.41837 8.01012 1.25461 8.41576 1.25009L8.43751 1.25L11.5607 1.25001ZM11.875 2.81069L11.875 3.75001H8.125V2.81251L8.12519 2.8005C8.12793 2.72072 8.16019 2.64627 8.21573 2.59073C8.27404 2.53241 8.35321 2.49976 8.43568 2.5L11.5625 2.5L11.5745 2.50019C11.6543 2.50293 11.7287 2.53519 11.7843 2.59073C11.8426 2.64905 11.8753 2.72821 11.875 2.81069ZM5.04028 5.00001L5.78043 16.8429C5.80062 17.236 6.05346 17.4937 6.39361 17.4999L6.40625 17.5H13.5938C13.9355 17.5 14.1889 17.2491 14.219 16.8508L14.22 16.836L14.9597 5.00001H5.04028ZM10.6249 6.86271C10.6183 6.52321 10.3411 6.25001 10 6.25001C9.65482 6.25001 9.375 6.52983 9.375 6.87501V15.625L9.37512 15.6373C9.38167 15.9768 9.65893 16.25 10 16.25C10.3452 16.25 10.625 15.9702 10.625 15.625V6.87501L10.6249 6.86271ZM7.16519 6.25041C7.50604 6.23823 7.79288 6.50136 7.81154 6.84041L7.8121 6.8527L8.1246 15.6027C8.13692 15.9477 7.86726 16.2373 7.52231 16.2496C7.18146 16.2618 6.89462 15.9987 6.87596 15.6596L6.8754 15.6473L6.5629 6.89732C6.55058 6.55236 6.82023 6.26273 7.16519 6.25041ZM12.8348 6.25041C12.4898 6.23809 12.2002 6.50774 12.1879 6.8527L11.8754 15.6027L11.8751 15.615C11.8695 15.9545 12.1368 16.2374 12.4777 16.2496C12.8227 16.2619 13.1123 15.9923 13.1246 15.6473L13.4371 6.89732L13.4374 6.88502C13.443 6.5455 13.1757 6.26258 12.8348 6.25041Z" fill="#F04438"/>
</svg>
