<svg width="24" height="24" viewBox="0 0 24 24" fill="none" xmlns="http://www.w3.org/2000/svg">
<path d="M0 12C0 5.37258 5.37258 0 12 0C18.6274 0 24 5.37258 24 12C24 18.6274 18.6274 24 12 24C5.37258 24 0 18.6274 0 12Z" fill="#F9F5FF"/>
<path d="M14.2223 7H5.88892V14.2222H14.2223V7Z" stroke="#6941C6" stroke-width="0.833333" stroke-linecap="round" stroke-linejoin="round"/>
<path d="M14.2222 9.77759H16.4444L18.1111 11.4443V14.222H14.2222V9.77759Z" stroke="#6941C6" stroke-width="0.833333" stroke-linecap="round" stroke-linejoin="round"/>
<path d="M8.38889 17.0002C9.15595 17.0002 9.77778 16.3784 9.77778 15.6113C9.77778 14.8442 9.15595 14.2224 8.38889 14.2224C7.62183 14.2224 7 14.8442 7 15.6113C7 16.3784 7.62183 17.0002 8.38889 17.0002Z" stroke="#6941C6" stroke-width="0.833333" stroke-linecap="round" stroke-linejoin="round"/>
<path d="M15.6111 17.0002C16.3781 17.0002 16.9999 16.3784 16.9999 15.6113C16.9999 14.8442 16.3781 14.2224 15.6111 14.2224C14.844 14.2224 14.2222 14.8442 14.2222 15.6113C14.2222 16.3784 14.844 17.0002 15.6111 17.0002Z" stroke="#6941C6" stroke-width="0.833333" stroke-linecap="round" stroke-linejoin="round"/>
</svg>

