<svg width="268" height="268" viewBox="0 0 268 268" fill="none" xmlns="http://www.w3.org/2000/svg">
<rect x="0.5" y="0.5" width="267" height="267" rx="133.5" fill="#FAFBFC" stroke="#DADCE0"/>
<path d="M87.6602 176.396H88.7852C88.7266 176.935 88.5723 177.418 88.3223 177.843C88.0723 178.269 87.7188 178.607 87.2617 178.857C86.8047 179.103 86.2344 179.226 85.5508 179.226C85.0508 179.226 84.5957 179.132 84.1855 178.945C83.7793 178.757 83.4297 178.492 83.1367 178.148C82.8438 177.8 82.6172 177.384 82.457 176.9C82.3008 176.412 82.2227 175.869 82.2227 175.271V174.421C82.2227 173.824 82.3008 173.283 82.457 172.798C82.6172 172.31 82.8457 171.892 83.1426 171.544C83.4434 171.197 83.8047 170.929 84.2266 170.742C84.6484 170.554 85.123 170.461 85.6504 170.461C86.2949 170.461 86.8398 170.582 87.2852 170.824C87.7305 171.066 88.0762 171.402 88.3223 171.832C88.5723 172.257 88.7266 172.752 88.7852 173.314H87.6602C87.6055 172.916 87.5039 172.574 87.3555 172.289C87.207 172 86.9961 171.777 86.7227 171.621C86.4492 171.464 86.0918 171.386 85.6504 171.386C85.2715 171.386 84.9375 171.459 84.6484 171.603C84.3633 171.748 84.123 171.953 83.9277 172.218C83.7363 172.484 83.5918 172.802 83.4941 173.173C83.3965 173.544 83.3477 173.957 83.3477 174.41V175.271C83.3477 175.689 83.3906 176.082 83.4766 176.449C83.5664 176.816 83.7012 177.138 83.8809 177.416C84.0605 177.693 84.2891 177.912 84.5664 178.072C84.8438 178.228 85.1719 178.306 85.5508 178.306C86.0312 178.306 86.4141 178.23 86.6992 178.078C86.9844 177.925 87.1992 177.707 87.3438 177.421C87.4922 177.136 87.5977 176.794 87.6602 176.396ZM91.3398 170.109V179.109H90.25V170.109H91.3398ZM94.2578 172.769V179.109H93.168V172.769H94.2578ZM93.0859 171.087C93.0859 170.912 93.1387 170.763 93.2441 170.642C93.3535 170.521 93.5137 170.461 93.7246 170.461C93.9316 170.461 94.0898 170.521 94.1992 170.642C94.3125 170.763 94.3691 170.912 94.3691 171.087C94.3691 171.255 94.3125 171.4 94.1992 171.521C94.0898 171.638 93.9316 171.697 93.7246 171.697C93.5137 171.697 93.3535 171.638 93.2441 171.521C93.1387 171.4 93.0859 171.255 93.0859 171.087ZM98.5352 178.336C98.793 178.336 99.0312 178.283 99.25 178.177C99.4688 178.072 99.6484 177.927 99.7891 177.744C99.9297 177.556 100.01 177.343 100.029 177.105H101.061C101.041 177.48 100.914 177.83 100.68 178.154C100.449 178.474 100.146 178.734 99.7715 178.933C99.3965 179.128 98.9844 179.226 98.5352 179.226C98.0586 179.226 97.6426 179.142 97.2871 178.974C96.9355 178.806 96.6426 178.576 96.4082 178.283C96.1777 177.99 96.0039 177.654 95.8867 177.275C95.7734 176.892 95.7168 176.488 95.7168 176.062V175.816C95.7168 175.39 95.7734 174.988 95.8867 174.609C96.0039 174.226 96.1777 173.888 96.4082 173.595C96.6426 173.302 96.9355 173.072 97.2871 172.904C97.6426 172.736 98.0586 172.652 98.5352 172.652C99.0312 172.652 99.4648 172.753 99.8359 172.957C100.207 173.156 100.498 173.429 100.709 173.777C100.924 174.121 101.041 174.511 101.061 174.949H100.029C100.01 174.687 99.9355 174.451 99.8066 174.24C99.6816 174.029 99.5098 173.861 99.291 173.736C99.0762 173.607 98.8242 173.543 98.5352 173.543C98.2031 173.543 97.9238 173.609 97.6973 173.742C97.4746 173.871 97.2969 174.046 97.1641 174.269C97.0352 174.488 96.9414 174.732 96.8828 175.002C96.8281 175.267 96.8008 175.539 96.8008 175.816V176.062C96.8008 176.339 96.8281 176.613 96.8828 176.882C96.9375 177.152 97.0293 177.396 97.1582 177.615C97.291 177.834 97.4688 178.009 97.6914 178.142C97.918 178.271 98.1992 178.336 98.5352 178.336ZM103.369 170.109V179.109H102.279V170.109H103.369ZM107.242 172.769L104.477 175.728L102.93 177.334L102.842 176.179L103.949 174.855L105.918 172.769H107.242ZM106.252 179.109L103.99 176.086L104.553 175.119L107.529 179.109H106.252ZM112.422 170.109V179.109H111.338V170.109H112.422ZM112.164 175.699L111.713 175.681C111.717 175.248 111.781 174.847 111.906 174.48C112.031 174.109 112.207 173.787 112.434 173.513C112.66 173.24 112.93 173.029 113.242 172.88C113.559 172.728 113.908 172.652 114.291 172.652C114.604 172.652 114.885 172.695 115.135 172.781C115.385 172.863 115.598 172.996 115.773 173.179C115.953 173.363 116.09 173.601 116.184 173.894C116.277 174.183 116.324 174.537 116.324 174.955V179.109H115.234V174.943C115.234 174.611 115.186 174.345 115.088 174.146C114.99 173.943 114.848 173.796 114.66 173.707C114.473 173.613 114.242 173.566 113.969 173.566C113.699 173.566 113.453 173.623 113.23 173.736C113.012 173.849 112.822 174.005 112.662 174.205C112.506 174.404 112.383 174.632 112.293 174.89C112.207 175.144 112.164 175.414 112.164 175.699ZM120.578 179.226C120.137 179.226 119.736 179.152 119.377 179.003C119.021 178.851 118.715 178.638 118.457 178.365C118.203 178.091 118.008 177.767 117.871 177.392C117.734 177.017 117.666 176.607 117.666 176.162V175.916C117.666 175.4 117.742 174.941 117.895 174.539C118.047 174.132 118.254 173.789 118.516 173.507C118.777 173.226 119.074 173.013 119.406 172.869C119.738 172.724 120.082 172.652 120.438 172.652C120.891 172.652 121.281 172.73 121.609 172.886C121.941 173.043 122.213 173.261 122.424 173.543C122.635 173.82 122.791 174.148 122.893 174.527C122.994 174.902 123.045 175.312 123.045 175.757V176.244H118.311V175.359H121.961V175.277C121.945 174.996 121.887 174.722 121.785 174.457C121.688 174.191 121.531 173.972 121.316 173.8C121.102 173.628 120.809 173.543 120.438 173.543C120.191 173.543 119.965 173.595 119.758 173.701C119.551 173.802 119.373 173.955 119.225 174.158C119.076 174.361 118.961 174.609 118.879 174.902C118.797 175.195 118.756 175.533 118.756 175.916V176.162C118.756 176.462 118.797 176.746 118.879 177.011C118.965 177.273 119.088 177.503 119.248 177.703C119.412 177.902 119.609 178.058 119.84 178.171C120.074 178.285 120.34 178.341 120.637 178.341C121.02 178.341 121.344 178.263 121.609 178.107C121.875 177.951 122.107 177.742 122.307 177.48L122.963 178.002C122.826 178.209 122.652 178.406 122.441 178.593C122.23 178.781 121.971 178.933 121.662 179.05C121.357 179.168 120.996 179.226 120.578 179.226ZM125.395 173.765V179.109H124.311V172.769H125.365L125.395 173.765ZM127.375 172.734L127.369 173.742C127.279 173.722 127.193 173.711 127.111 173.707C127.033 173.699 126.943 173.695 126.842 173.695C126.592 173.695 126.371 173.734 126.18 173.812C125.988 173.89 125.826 174 125.693 174.14C125.561 174.281 125.455 174.449 125.377 174.644C125.303 174.836 125.254 175.046 125.23 175.277L124.926 175.453C124.926 175.07 124.963 174.711 125.037 174.375C125.115 174.039 125.234 173.742 125.395 173.484C125.555 173.222 125.758 173.019 126.004 172.875C126.254 172.726 126.551 172.652 126.895 172.652C126.973 172.652 127.062 172.662 127.164 172.681C127.266 172.697 127.336 172.714 127.375 172.734ZM130.891 179.226C130.449 179.226 130.049 179.152 129.689 179.003C129.334 178.851 129.027 178.638 128.77 178.365C128.516 178.091 128.32 177.767 128.184 177.392C128.047 177.017 127.979 176.607 127.979 176.162V175.916C127.979 175.4 128.055 174.941 128.207 174.539C128.359 174.132 128.566 173.789 128.828 173.507C129.09 173.226 129.387 173.013 129.719 172.869C130.051 172.724 130.395 172.652 130.75 172.652C131.203 172.652 131.594 172.73 131.922 172.886C132.254 173.043 132.525 173.261 132.736 173.543C132.947 173.82 133.104 174.148 133.205 174.527C133.307 174.902 133.357 175.312 133.357 175.757V176.244H128.623V175.359H132.273V175.277C132.258 174.996 132.199 174.722 132.098 174.457C132 174.191 131.844 173.972 131.629 173.8C131.414 173.628 131.121 173.543 130.75 173.543C130.504 173.543 130.277 173.595 130.07 173.701C129.863 173.802 129.686 173.955 129.537 174.158C129.389 174.361 129.273 174.609 129.191 174.902C129.109 175.195 129.068 175.533 129.068 175.916V176.162C129.068 176.462 129.109 176.746 129.191 177.011C129.277 177.273 129.4 177.503 129.561 177.703C129.725 177.902 129.922 178.058 130.152 178.171C130.387 178.285 130.652 178.341 130.949 178.341C131.332 178.341 131.656 178.263 131.922 178.107C132.188 177.951 132.42 177.742 132.619 177.48L133.275 178.002C133.139 178.209 132.965 178.406 132.754 178.593C132.543 178.781 132.283 178.933 131.975 179.05C131.67 179.168 131.309 179.226 130.891 179.226ZM140.254 172.769V173.601H136.826V172.769H140.254ZM137.986 171.228H139.07V177.539C139.07 177.753 139.104 177.916 139.17 178.025C139.236 178.134 139.322 178.207 139.428 178.242C139.533 178.277 139.646 178.294 139.768 178.294C139.857 178.294 139.951 178.287 140.049 178.271C140.15 178.252 140.227 178.236 140.277 178.224L140.283 179.109C140.197 179.136 140.084 179.162 139.943 179.185C139.807 179.212 139.641 179.226 139.445 179.226C139.18 179.226 138.936 179.173 138.713 179.068C138.49 178.962 138.312 178.787 138.18 178.541C138.051 178.291 137.986 177.955 137.986 177.533V171.228ZM141.121 176.009V175.875C141.121 175.418 141.188 174.994 141.32 174.603C141.453 174.209 141.645 173.867 141.895 173.578C142.145 173.285 142.447 173.058 142.803 172.898C143.158 172.734 143.557 172.652 143.998 172.652C144.443 172.652 144.844 172.734 145.199 172.898C145.559 173.058 145.863 173.285 146.113 173.578C146.367 173.867 146.561 174.209 146.693 174.603C146.826 174.994 146.893 175.418 146.893 175.875V176.009C146.893 176.466 146.826 176.89 146.693 177.281C146.561 177.671 146.367 178.013 146.113 178.306C145.863 178.595 145.561 178.822 145.205 178.986C144.854 179.146 144.455 179.226 144.01 179.226C143.564 179.226 143.164 179.146 142.809 178.986C142.453 178.822 142.148 178.595 141.895 178.306C141.645 178.013 141.453 177.671 141.32 177.281C141.188 176.89 141.121 176.466 141.121 176.009ZM142.205 175.875V176.009C142.205 176.326 142.242 176.625 142.316 176.906C142.391 177.183 142.502 177.429 142.65 177.644C142.803 177.859 142.992 178.029 143.219 178.154C143.445 178.275 143.709 178.336 144.01 178.336C144.307 178.336 144.566 178.275 144.789 178.154C145.016 178.029 145.203 177.859 145.352 177.644C145.5 177.429 145.611 177.183 145.686 176.906C145.764 176.625 145.803 176.326 145.803 176.009V175.875C145.803 175.562 145.764 175.267 145.686 174.99C145.611 174.709 145.498 174.461 145.346 174.246C145.197 174.027 145.01 173.855 144.783 173.73C144.561 173.605 144.299 173.543 143.998 173.543C143.701 173.543 143.439 173.605 143.213 173.73C142.99 173.855 142.803 174.027 142.65 174.246C142.502 174.461 142.391 174.709 142.316 174.99C142.242 175.267 142.205 175.562 142.205 175.875ZM155.107 177.644V172.769H156.197V179.109H155.16L155.107 177.644ZM155.312 176.308L155.764 176.296C155.764 176.718 155.719 177.109 155.629 177.468C155.543 177.824 155.402 178.132 155.207 178.394C155.012 178.656 154.756 178.861 154.439 179.009C154.123 179.154 153.738 179.226 153.285 179.226C152.977 179.226 152.693 179.181 152.436 179.091C152.182 179.002 151.963 178.863 151.779 178.675C151.596 178.488 151.453 178.244 151.352 177.943C151.254 177.642 151.205 177.281 151.205 176.859V172.769H152.289V176.871C152.289 177.156 152.32 177.392 152.383 177.58C152.449 177.763 152.537 177.91 152.646 178.019C152.76 178.125 152.885 178.199 153.021 178.242C153.162 178.285 153.307 178.306 153.455 178.306C153.916 178.306 154.281 178.218 154.551 178.043C154.82 177.863 155.014 177.623 155.131 177.322C155.252 177.017 155.312 176.679 155.312 176.308ZM158.934 173.988V181.546H157.844V172.769H158.84L158.934 173.988ZM163.205 175.886V176.009C163.205 176.47 163.15 176.898 163.041 177.293C162.932 177.683 162.771 178.023 162.561 178.312C162.354 178.601 162.098 178.826 161.793 178.986C161.488 179.146 161.139 179.226 160.744 179.226C160.342 179.226 159.986 179.16 159.678 179.027C159.369 178.894 159.107 178.701 158.893 178.447C158.678 178.193 158.506 177.888 158.377 177.533C158.252 177.177 158.166 176.777 158.119 176.332V175.675C158.166 175.207 158.254 174.787 158.383 174.416C158.512 174.044 158.682 173.728 158.893 173.466C159.107 173.201 159.367 173 159.672 172.863C159.977 172.722 160.328 172.652 160.727 172.652C161.125 172.652 161.479 172.73 161.787 172.886C162.096 173.039 162.355 173.257 162.566 173.543C162.777 173.828 162.936 174.169 163.041 174.568C163.15 174.962 163.205 175.402 163.205 175.886ZM162.115 176.009V175.886C162.115 175.57 162.082 175.273 162.016 174.996C161.949 174.714 161.846 174.468 161.705 174.257C161.568 174.043 161.393 173.875 161.178 173.753C160.963 173.628 160.707 173.566 160.41 173.566C160.137 173.566 159.898 173.613 159.695 173.707C159.496 173.8 159.326 173.927 159.186 174.087C159.045 174.244 158.93 174.423 158.84 174.627C158.754 174.826 158.689 175.033 158.646 175.248V176.765C158.725 177.039 158.834 177.296 158.975 177.539C159.115 177.777 159.303 177.97 159.537 178.119C159.771 178.263 160.066 178.336 160.422 178.336C160.715 178.336 160.967 178.275 161.178 178.154C161.393 178.029 161.568 177.859 161.705 177.644C161.846 177.429 161.949 177.183 162.016 176.906C162.082 176.625 162.115 176.326 162.115 176.009ZM165.766 170.109V179.109H164.676V170.109H165.766ZM167.219 176.009V175.875C167.219 175.418 167.285 174.994 167.418 174.603C167.551 174.209 167.742 173.867 167.992 173.578C168.242 173.285 168.545 173.058 168.9 172.898C169.256 172.734 169.654 172.652 170.096 172.652C170.541 172.652 170.941 172.734 171.297 172.898C171.656 173.058 171.961 173.285 172.211 173.578C172.465 173.867 172.658 174.209 172.791 174.603C172.924 174.994 172.99 175.418 172.99 175.875V176.009C172.99 176.466 172.924 176.89 172.791 177.281C172.658 177.671 172.465 178.013 172.211 178.306C171.961 178.595 171.658 178.822 171.303 178.986C170.951 179.146 170.553 179.226 170.107 179.226C169.662 179.226 169.262 179.146 168.906 178.986C168.551 178.822 168.246 178.595 167.992 178.306C167.742 178.013 167.551 177.671 167.418 177.281C167.285 176.89 167.219 176.466 167.219 176.009ZM168.303 175.875V176.009C168.303 176.326 168.34 176.625 168.414 176.906C168.488 177.183 168.6 177.429 168.748 177.644C168.9 177.859 169.09 178.029 169.316 178.154C169.543 178.275 169.807 178.336 170.107 178.336C170.404 178.336 170.664 178.275 170.887 178.154C171.113 178.029 171.301 177.859 171.449 177.644C171.598 177.429 171.709 177.183 171.783 176.906C171.861 176.625 171.9 176.326 171.9 176.009V175.875C171.9 175.562 171.861 175.267 171.783 174.99C171.709 174.709 171.596 174.461 171.443 174.246C171.295 174.027 171.107 173.855 170.881 173.73C170.658 173.605 170.396 173.543 170.096 173.543C169.799 173.543 169.537 173.605 169.311 173.73C169.088 173.855 168.9 174.027 168.748 174.246C168.6 174.461 168.488 174.709 168.414 174.99C168.34 175.267 168.303 175.562 168.303 175.875ZM178.088 178.025V174.761C178.088 174.511 178.037 174.294 177.936 174.111C177.838 173.923 177.689 173.779 177.49 173.677C177.291 173.576 177.045 173.525 176.752 173.525C176.479 173.525 176.238 173.572 176.031 173.666C175.828 173.759 175.668 173.882 175.551 174.035C175.438 174.187 175.381 174.351 175.381 174.527H174.297C174.297 174.3 174.355 174.076 174.473 173.853C174.59 173.63 174.758 173.429 174.977 173.25C175.199 173.066 175.465 172.921 175.773 172.816C176.086 172.707 176.434 172.652 176.816 172.652C177.277 172.652 177.684 172.73 178.035 172.886C178.391 173.043 178.668 173.279 178.867 173.595C179.07 173.908 179.172 174.3 179.172 174.773V177.726C179.172 177.937 179.189 178.162 179.225 178.4C179.264 178.638 179.32 178.843 179.395 179.015V179.109H178.264C178.209 178.984 178.166 178.818 178.135 178.611C178.104 178.4 178.088 178.205 178.088 178.025ZM178.275 175.265L178.287 176.027H177.191C176.883 176.027 176.607 176.052 176.365 176.103C176.123 176.15 175.92 176.222 175.756 176.32C175.592 176.418 175.467 176.541 175.381 176.689C175.295 176.834 175.252 177.003 175.252 177.199C175.252 177.398 175.297 177.58 175.387 177.744C175.477 177.908 175.611 178.039 175.791 178.136C175.975 178.23 176.199 178.277 176.465 178.277C176.797 178.277 177.09 178.207 177.344 178.066C177.598 177.925 177.799 177.753 177.947 177.55C178.1 177.347 178.182 177.15 178.193 176.959L178.656 177.48C178.629 177.644 178.555 177.826 178.434 178.025C178.312 178.224 178.15 178.416 177.947 178.599C177.748 178.779 177.51 178.929 177.232 179.05C176.959 179.168 176.65 179.226 176.307 179.226C175.877 179.226 175.5 179.142 175.176 178.974C174.855 178.806 174.605 178.582 174.426 178.3C174.25 178.015 174.162 177.697 174.162 177.345C174.162 177.005 174.229 176.707 174.361 176.449C174.494 176.187 174.686 175.97 174.936 175.798C175.186 175.623 175.486 175.49 175.838 175.4C176.189 175.31 176.582 175.265 177.016 175.265H178.275ZM184.873 177.878V170.109H185.963V179.109H184.967L184.873 177.878ZM180.607 176.009V175.886C180.607 175.402 180.666 174.962 180.783 174.568C180.904 174.169 181.074 173.828 181.293 173.543C181.516 173.257 181.779 173.039 182.084 172.886C182.393 172.73 182.736 172.652 183.115 172.652C183.514 172.652 183.861 172.722 184.158 172.863C184.459 173 184.713 173.201 184.92 173.466C185.131 173.728 185.297 174.044 185.418 174.416C185.539 174.787 185.623 175.207 185.67 175.675V176.214C185.627 176.679 185.543 177.097 185.418 177.468C185.297 177.839 185.131 178.156 184.92 178.418C184.713 178.679 184.459 178.88 184.158 179.021C183.857 179.158 183.506 179.226 183.104 179.226C182.732 179.226 182.393 179.146 182.084 178.986C181.779 178.826 181.516 178.601 181.293 178.312C181.074 178.023 180.904 177.683 180.783 177.293C180.666 176.898 180.607 176.47 180.607 176.009ZM181.697 175.886V176.009C181.697 176.326 181.729 176.623 181.791 176.9C181.857 177.177 181.959 177.421 182.096 177.632C182.232 177.843 182.406 178.009 182.617 178.13C182.828 178.248 183.08 178.306 183.373 178.306C183.732 178.306 184.027 178.23 184.258 178.078C184.492 177.925 184.68 177.724 184.82 177.474C184.961 177.224 185.07 176.953 185.148 176.66V175.248C185.102 175.033 185.033 174.826 184.943 174.627C184.857 174.423 184.744 174.244 184.604 174.087C184.467 173.927 184.297 173.8 184.094 173.707C183.895 173.613 183.658 173.566 183.385 173.566C183.088 173.566 182.832 173.628 182.617 173.753C182.406 173.875 182.232 174.043 182.096 174.257C181.959 174.468 181.857 174.714 181.791 174.996C181.729 175.273 181.697 175.57 181.697 175.886Z" fill="#C4C4C4"/>
<path d="M108.292 143.319H158.067C161.994 143.319 165.178 140.278 165.178 136.527V88.9807C165.178 85.2294 161.994 82.1884 158.067 82.1884H108.292C104.365 82.1884 101.182 85.2294 101.182 88.9807V136.527C101.182 140.278 104.365 143.319 108.292 143.319ZM108.292 143.319L147.401 105.961L165.178 122.942M126.069 100.867C126.069 103.681 123.681 105.961 120.736 105.961C117.791 105.961 115.403 103.681 115.403 100.867C115.403 98.0538 117.791 95.773 120.736 95.773C123.681 95.773 126.069 98.0538 126.069 100.867Z" stroke="#C4C4C4" stroke-width="2" stroke-linecap="round" stroke-linejoin="round"/>
</svg>
