<svg width="40" height="40" viewBox="0 0 40 40" fill="none" xmlns="http://www.w3.org/2000/svg">
<path fill-rule="evenodd" clip-rule="evenodd" d="M19.9867 13.75C16.6297 13.75 13.3497 15.7177 10.848 19.3037C10.5591 19.7223 10.5508 20.2702 10.825 20.6946C12.9929 24.0882 16.334 26.25 19.9867 26.25C23.6163 26.25 27.0175 24.0601 29.1772 20.6782C29.4423 20.2662 29.4423 19.7349 29.176 19.3211C28.1522 17.7399 26.8127 16.3728 25.296 15.3935C23.6474 14.329 21.8382 13.75 19.9867 13.75ZM19.9867 15C23.1144 15 26.1638 16.9689 28.1258 19.9991C28.126 19.9994 28.126 20.0017 28.1248 20.0035C26.1783 23.0517 23.1523 25 19.9867 25C16.8312 25 13.8917 23.1185 11.9357 20.1105L11.875 20.0163C14.1549 16.7482 17.069 15 19.9867 15ZM20 16.25C17.9289 16.25 16.25 17.9289 16.25 20C16.25 22.0711 17.9289 23.75 20 23.75C22.0711 23.75 23.75 22.0711 23.75 20C23.75 17.9289 22.0711 16.25 20 16.25ZM20 17.5C21.3807 17.5 22.5 18.6193 22.5 20C22.5 21.3807 21.3807 22.5 20 22.5C18.6193 22.5 17.5 21.3807 17.5 20C17.5 18.6193 18.6193 17.5 20 17.5Z" fill="#757575"/>
</svg>
